# xmcd
#
# Track frame offsets:
#	150
#	16426
#	36954
#	52887
#	71698
#	91686
#	107192
#	123955
#	142079
#	158356
#	176585
#
# Disc length: 2586 seconds
#
# Revision: 6
# Processed by: cddbd v1.5.2PL0 Copyright (c) Steve Scherf et al.
# Submitted via: EasyCDDAExtractor 12.0.0.1
#
DISCID=8a0a180b
DTITLE=Paulina Rubio - Original Masters - CD 1 (24 Kilates)
DYEAR=2005
DGENRE=Latin
TTITLE0=Maldito Amor
TTITLE1=Diamante Puro
TTITLE2=Nieva, Nieva
TTITLE3=El Me Engaño
TTITLE4=Nada Puedes Hacer
TTITLE5=Los Dioses Se Van
TTITLE6=Asunto De Dos
TTITLE7=Compañia
TTITLE8=Vuelve Junto A Mi
TTITLE9=Tu Solo Tu
TTITLE10=Corazon Tirano
EXTD=
EXTT0=
EXTT1=
EXTT2=
EXTT3=
EXTT4=
EXTT5=
EXTT6=
EXTT7=
EXTT8=
EXTT9=
EXTT10=
PLAYORDER=
